# xmcd CD database file
#
# Track frame offsets:
#	150
#	21275
#	40060
#	61195
#
# Disc length: 1067 seconds
#
# Revision: 0
# Processed by: cddbd v1.5PL3 Copyright (c) Steve Scherf et al.
# Submitted via: CDex 1.51
#
DISCID=29042904
DTITLE=彩　恵津子 - 海よりも深く
DYEAR=1994
DGENRE=JPop
TTITLE0=海よりも深く
TTITLE1=小さな奇跡-Jast a little wonder-
TTITLE2=海よりも深く(KARAOKE)
TTITLE3=小さな奇跡-Jast A Little Wonder-(KARAOKE)
EXTD=YEAR: 1994
EXTT0=
EXTT1=
EXTT2=
EXTT3=
PLAYORDER=
